<svg xmlns="http://www.w3.org/2000/svg" viewBox="0 0 24 22.122">
  <defs>
    <style>
      .cls-1 {
        fill: #45177b;
      }
    </style>
  </defs>
  <g id="filter" transform="translate(-248 -25)">
    <path id="filter-2" data-name="filter" class="cls-1" d="M23.93,10.1a.727.727,0,0,0-.658-.417H.727a.727.727,0,0,0-.561,1.19L8.832,21.385v9.693a.727.727,0,0,0,1.05.652l4.869-2.413a.727.727,0,0,0,.4-.651l.01-7.28,8.667-10.512A.727.727,0,0,0,23.93,10.1ZM13.878,20.661a.727.727,0,0,0-.166.462l-.009,7.09-3.415,1.693V21.123a.727.727,0,0,0-.166-.463L2.269,11.138H21.73Z" transform="translate(248 15.317)"/>
  </g>
</svg>
