<svg xmlns="http://www.w3.org/2000/svg" viewBox="0 0 32.908 36.22">
  <defs>
    <style>
      .cls-1 {
        fill: #45177b;
      }
    </style>
  </defs>
  <g id="_001-list" data-name="001-list" transform="translate(-68 -239)">
    <g id="Group_13" data-name="Group 13" transform="translate(68 239)">
      <path id="Path_3" data-name="Path 3" class="cls-1" d="M26.6,4.657a.912.912,0,0,0-1.285-.007.9.9,0,0,0-.007,1.285l2.169,2.183a.91.91,0,0,0,.646.267h0a.906.906,0,0,0,.639-.267l6.6-6.565A.906.906,0,1,0,34.086.267l-2,1.983a5.694,5.694,0,1,0,1.367,5.615.912.912,0,1,0-1.745-.527,3.887,3.887,0,1,1-.913-3.8L28.13,6.194Z" transform="translate(-22.3 0)"/>
      <path id="Path_4" data-name="Path 4" class="cls-1" d="M28,170.6a5.7,5.7,0,1,0,5.7,5.7A5.7,5.7,0,0,0,28,170.6Zm0,9.573a3.877,3.877,0,1,1,3.877-3.877A3.88,3.88,0,0,1,28,180.173Z" transform="translate(-22.3 -157.93)"/>
      <path id="Path_5" data-name="Path 5" class="cls-1" d="M33.693,340a5.7,5.7,0,1,0-5.7,5.7A5.7,5.7,0,0,0,33.693,340ZM28,343.88A3.877,3.877,0,1,1,31.873,340,3.879,3.879,0,0,1,28,343.88Z" transform="translate(-22.3 -309.473)"/>
      <path id="Path_6" data-name="Path 6" class="cls-1" d="M221.111,235h-17.7a.913.913,0,0,0,0,1.827h17.7a.913.913,0,0,0,0-1.827Z" transform="translate(-189.117 -217.547)"/>
      <path id="Path_7" data-name="Path 7" class="cls-1" d="M221.111,71.5h-17.7a.913.913,0,0,0,0,1.827h17.7a.913.913,0,1,0,0-1.827Z" transform="translate(-189.117 -66.19)"/>
      <path id="Path_8" data-name="Path 8" class="cls-1" d="M221.111,398.8h-17.7a.913.913,0,1,0,0,1.827h17.7a.913.913,0,1,0,0-1.827Z" transform="translate(-189.117 -369.182)"/>
    </g>
  </g>
</svg>
